<svg version="1.1" xmlns="http://www.w3.org/2000/svg" xmlns:xlink="http://www.w3.org/1999/xlink" width="77.3" height="91.51998" viewBox="0,0,77.3,91.51998"><g transform="translate(-201.35,-134.24001)"><g data-paper-data="{&quot;isPaintingLayer&quot;:true}" fill-rule="nonzero" stroke="#ffffff" stroke-width="2.5" stroke-linejoin="miter" stroke-miterlimit="10" stroke-dasharray="" stroke-dashoffset="0" style="mix-blend-mode: normal"><path d="M202.6,141.15999l61.2,-5.65c0,0 11.09461,3.93647 13.35103,4.91313" fill="none" stroke-linecap="round"/><path d="M202.6,218.70999c0,0 0,-69.27754 0,-76.6c0,-1.25244 0.87135,0.00098 2.2482,1.00762c2.32816,1.70217 6.10168,3.99238 9.5518,3.99238c10.79908,0 48.86256,-4.20264 59.94889,-5.45309c1.93755,-0.21854 3.05111,-1.2935 3.05111,-0.14691c0,7.04011 0,77.2 0,77.2c0,0 -51.06665,5.8 -63.6,5.8c-5.25953,0 -11.2,-5.8 -11.2,-5.8z" fill="none" stroke-linecap="butt"/><path d="M214.2,224.50999v-76.8" fill="#dadde2" stroke-linecap="round"/><path d="M256.6,186.50999c0,0.816 -1.46204,2.55839 -2.85318,2.70909c-2.81253,0.30469 -13.11013,1.42027 -18.22445,1.97431c-1.77247,0.19201 -2.92237,-1.2674 -2.92237,-2.08341c0,-0.84932 1.26455,-2.737 3.18429,-2.94496c5.16178,-0.55919 15.06033,-1.63154 17.8505,-1.93381c1.4372,-0.1557 2.9652,1.42945 2.9652,2.27877z" fill="none" stroke-linecap="round"/><path d="M250.4,156.70998c0,1.14534 -1.43297,3.72144 -3.17718,3.86926c-1.96675,0.16668 -4.32924,0.36689 -5.4793,0.46435c-1.30766,0.11082 -3.14352,-1.85077 -3.14352,-2.9336c0,-1.11616 1.48946,-3.52622 2.63195,-3.62304c1.07409,-0.09103 3.39235,-0.28749 5.42881,-0.46007c2.00638,-0.17004 3.73924,1.63756 3.73924,2.68311z" fill="none" stroke-linecap="round"/><path d="M257.60001,208.70999c0,1.41024 -0.915,2.44097 -2.37849,2.59909c-5.11995,0.55318 -16.95298,1.83168 -19.80649,2.13998c-1.21059,0.1308 -2.41502,-0.43628 -2.41502,-1.53907c0,-3.58741 0,-11.46685 0,-13.6c0,-1.04014 1.17163,-2.2687 2.35713,-2.39678c2.86415,-0.30945 14.98158,-1.61868 20.02553,-2.16365c1.36932,-0.14795 2.21733,1.01603 2.21733,2.16043c0,2.08226 0,9.09345 0,12.8z" fill="none" stroke-linecap="round"/><path d="M270.4,164.90999c0,0.7826 -1.36886,2.54179 -3.64377,2.77744c-10.11048,1.0473 -38.11725,3.94841 -43.3902,4.49461c-1.67588,0.1736 -3.16603,-1.27204 -3.16603,-2.07205c0,-0.8 1.5333,-2.55272 3.24747,-2.72346c5.22738,-0.52066 32.27007,-3.21415 42.77406,-4.26037c2.59326,-0.2583 4.17847,1.03454 4.17847,1.78382z" fill="none" stroke-linecap="round"/><path d="M256.6,176.50999c0,0.816 -1.46204,2.55839 -2.85318,2.70909c-2.81253,0.30469 -13.11013,1.42027 -18.22445,1.97431c-1.77247,0.19201 -2.92237,-1.2674 -2.92237,-2.08341c0,-0.84932 1.26455,-2.737 3.18429,-2.94496c5.16178,-0.55919 15.06033,-1.63154 17.8505,-1.93381c1.4372,-0.1557 2.9652,1.42945 2.9652,2.27877z" fill="none" stroke-linecap="round"/></g></g></svg>